<svg xmlns="http://www.w3.org/2000/svg" viewBox="0 0 1288.26 218.5"><defs><style>.cls-1{fill:#17b5cd;}.cls-2{fill:#fff;}</style></defs><title>Fichier 6</title><g id="Calque_2" data-name="Calque 2"><g id="Calque_2-2" data-name="Calque 2"><path class="cls-1" d="M170.85,148.29A72.46,72.46,0,1,1,170,69.36L201.08,50A109.43,109.43,0,0,0,109.42.5C49,.5,0,49.3,0,109.5s49,109,109.42,109a109.41,109.41,0,0,0,92.91-51.45Z"/><path class="cls-2" d="M133.71,126.18a29.51,29.51,0,1,1-.33-34l21.31-13.29a54.51,54.51,0,1,0,.56,60.08Z"/><path class="cls-1" d="M111.12,112.72a3.85,3.85,0,0,1-1.89-3.27,3.89,3.89,0,0,1,1.82-3.32l9.55-5.95a14.57,14.57,0,1,0,.16,18.28Z"/><path class="cls-2" d="M337.44,207.59a109.6,109.6,0,0,1-34.21-23.19A99.33,99.33,0,0,1,280,149.9a104,104,0,0,1-8.7-42C271.33,48.42,320,0,379.48,0A107.36,107.36,0,0,1,427.9,11.6a106.2,106.2,0,0,1,38,31.89l4.63,5.8-31,22.91-4.35-5.8a68.41,68.41,0,0,0-55.67-27.83c-38.27,0-69.58,31-69.58,69.29,0,38.56,31.31,69.87,69.58,69.87a69.24,69.24,0,0,0,55.67-27.83l4.35-5.51L470.23,167l-4.64,5.8A106.85,106.85,0,0,1,379.48,216,109.87,109.87,0,0,1,337.44,207.59Z"/><path class="cls-2" d="M497.17,212.81V0h37.69V212.81Z"/><path class="cls-2" d="M575.44,41.75a21,21,0,0,1,6.67-15.65,22.15,22.15,0,0,1,15.95-6.67,22.33,22.33,0,0,1,0,44.65A22.59,22.59,0,0,1,575.44,41.75Zm3.77,171.06V80H616.9V212.81Z"/><path class="cls-2" d="M715.18,207.59A109.6,109.6,0,0,1,681,184.4a99.33,99.33,0,0,1-23.2-34.5,104.17,104.17,0,0,1-8.7-42C649.07,48.42,697.78,0,757.22,0a107.43,107.43,0,0,1,48.43,11.6,106.17,106.17,0,0,1,38,31.89l4.64,5.8-31,22.91-4.36-5.8a68.37,68.37,0,0,0-55.66-27.83c-38.27,0-69.58,31-69.58,69.29,0,38.56,31.31,69.87,69.58,69.87a69.19,69.19,0,0,0,55.66-27.83l4.36-5.51L848,167l-4.64,5.8a106.82,106.82,0,0,1-86.1,43.2A109.87,109.87,0,0,1,715.18,207.59Z"/><path class="cls-2" d="M874.92,212.81V0H912.6V212.81Z"/><path class="cls-2" d="M953.18,41.75a21,21,0,0,1,6.67-15.65,22.12,22.12,0,0,1,15.94-6.67,22.33,22.33,0,1,1,0,44.65A22.59,22.59,0,0,1,953.18,41.75ZM957,212.81V80h37.69V212.81Z"/><path class="cls-2" d="M1092.92,207.59a109.6,109.6,0,0,1-34.21-23.19,99.33,99.33,0,0,1-23.2-34.5,104.17,104.17,0,0,1-8.7-42C1026.81,48.42,1075.52,0,1135,0a107.32,107.32,0,0,1,48.41,11.6,106,106,0,0,1,38,31.89l4.64,5.8L1195,72.2l-4.34-5.8A68.39,68.39,0,0,0,1135,38.57c-38.28,0-69.59,31-69.59,69.29,0,38.56,31.31,69.87,69.59,69.87a69.22,69.22,0,0,0,55.66-27.83l4.34-5.51L1225.71,167l-4.64,5.8A106.85,106.85,0,0,1,1135,216,109.89,109.89,0,0,1,1092.92,207.59Z"/><path class="cls-1" d="M1104.42,138.71V78.88h20.08c16.89,0,30.67,13.44,30.67,29.91s-13.78,29.92-30.67,29.92Zm20.08-11c10.76,0,19.5-8.49,19.5-18.91s-8.74-18.9-19.5-18.9h-8.9V127.7Z"/><path class="cls-1" d="M1162,108.37a31.3,31.3,0,1,1,31.26,31.18A31.33,31.33,0,0,1,1162,108.37Zm11.26,0a20,20,0,1,0,20-20.17A20.06,20.06,0,0,0,1173.23,108.37Z"/><path class="cls-1" d="M1249.69,137.19a31.79,31.79,0,0,1-9.91-6.72,28.78,28.78,0,0,1-6.72-10,30.13,30.13,0,0,1-2.52-12.18A31.37,31.37,0,0,1,1261.88,77a31.37,31.37,0,0,1,25,12.6l1.34,1.68-9,6.64L1278,96.27a19.84,19.84,0,0,0-16.13-8.07A20.17,20.17,0,1,0,1278,120.47l1.26-1.6,8.91,6.56-1.35,1.68a31,31,0,0,1-24.95,12.52A31.84,31.84,0,0,1,1249.69,137.19Z"/></g></g></svg>